<svg width="26" height="16" viewBox="0 0 26 16" fill="none" xmlns="http://www.w3.org/2000/svg">
<path d="M8.56558 16C6.2032 16 4.18441 15.4404 2.5092 14.3212C0.833998 13.2021 -0.00240173 11.8445 5.17986e-06 10.2486C0.00241209 8.65272 0.838812 7.29887 2.5092 6.18708C4.18561 5.0761 6.20501 4.52062 8.56739 4.52062H22.5449L17.1907 0.871385L18.4688 0L26 5.136L18.467 10.272L17.1889 9.40185L22.5431 5.75139H8.56558C6.69301 5.75139 5.09843 6.18544 3.78186 7.05354C2.46287 7.92164 1.80338 8.98667 1.80338 10.2486C1.80338 11.5106 2.46227 12.5797 3.78005 13.456C5.09903 14.3315 6.69421 14.7692 8.56558 14.7692H21.6604V16H8.56558Z" fill="black"/>
</svg>
