<svg width="26" height="16" viewBox="0 0 26 16" fill="none" xmlns="http://www.w3.org/2000/svg">
<path d="M4.33965 16V14.7692H17.4344C19.307 14.7692 20.9016 14.3315 22.2181 13.456C23.5371 12.5805 24.1966 11.5114 24.1966 10.2486C24.1966 8.98585 23.5377 7.92082 22.22 7.05354C20.901 6.18544 19.3058 5.75138 17.4344 5.75138H3.45872L8.81108 9.40061L7.53301 10.272L0 5.136L7.53301 0L8.81108 0.871385L3.45872 4.52062H17.4344C19.7968 4.52062 21.8156 5.0761 23.4908 6.18708C25.1636 7.29805 26 8.6519 26 10.2486C26 11.8453 25.1636 13.2033 23.4908 14.3225C21.818 15.4416 19.7986 16.0008 17.4326 16H4.33965Z" fill="black"/>
</svg>
